<svg xmlns="http://www.w3.org/2000/svg" xmlns:xlink="http://www.w3.org/1999/xlink" width="600" zoomAndPan="magnify" viewBox="0 0 450 299.999988" height="400" preserveAspectRatio="xMidYMid meet" version="1.0"><defs><g/><clipPath id="8c4dc4a88d"><path d="M 0 2 L 231 2 L 231 121.480469 L 0 121.480469 Z M 0 2 " clip-rule="nonzero"/></clipPath><clipPath id="673a17243a"><rect x="0" width="231" y="0" height="120"/></clipPath><clipPath id="70c58180d5"><path d="M 232 0.761719 L 416.878906 0.761719 L 416.878906 121.480469 L 232 121.480469 Z M 232 0.761719 " clip-rule="nonzero"/></clipPath><clipPath id="d4a394f91c"><path d="M 127 4 L 184.878906 4 L 184.878906 78 L 127 78 Z M 127 4 " clip-rule="nonzero"/></clipPath><clipPath id="3b35b3191f"><rect x="0" width="185" y="0" height="122"/></clipPath><clipPath id="1c540ba534"><rect x="0" width="417" y="0" height="122"/></clipPath></defs><rect x="-45" width="540" fill="#ffffff" y="-29.999999" height="359.999986" fill-opacity="1"/><rect x="-45" width="540" fill="#214a3a" y="-29.999999" height="359.999986" fill-opacity="1"/><g transform="matrix(1, 0, 0, 1, 12, 101)"><g clip-path="url(#1c540ba534)"><g clip-path="url(#8c4dc4a88d)"><g transform="matrix(1, 0, 0, 1, 0, 2)"><g clip-path="url(#673a17243a)"><g fill="#ffffff" fill-opacity="1"><g transform="translate(0.150226, 75.977547)"><g><path d="M 14.59375 -73.359375 L 32.46875 -28.5 L 50.34375 -73.359375 L 64.953125 -73.359375 L 32.46875 1.515625 L 0 -73.359375 Z M 14.59375 -73.359375 "/></g></g></g><g fill="#ffffff" fill-opacity="1"><g transform="translate(58.667147, 75.977547)"><g><path d="M 34.21875 -46.609375 C 31.726562 -46.609375 29.394531 -46.117188 27.21875 -45.140625 C 25.039062 -44.171875 23.148438 -42.847656 21.546875 -41.171875 C 19.953125 -39.503906 18.6875 -37.554688 17.75 -35.328125 C 16.820312 -33.109375 16.359375 -30.753906 16.359375 -28.265625 C 16.359375 -25.691406 16.820312 -23.296875 17.75 -21.078125 C 18.6875 -18.859375 19.972656 -16.929688 21.609375 -15.296875 C 23.242188 -13.660156 25.148438 -12.351562 27.328125 -11.375 C 29.515625 -10.40625 31.851562 -9.921875 34.34375 -9.921875 C 36.757812 -9.921875 39.035156 -10.40625 41.171875 -11.375 C 43.316406 -12.351562 45.207031 -13.660156 46.84375 -15.296875 C 48.476562 -16.929688 49.757812 -18.859375 50.6875 -21.078125 C 51.625 -23.296875 52.09375 -25.691406 52.09375 -28.265625 C 52.09375 -30.753906 51.625 -33.109375 50.6875 -35.328125 C 49.757812 -37.554688 48.492188 -39.503906 46.890625 -41.171875 C 45.296875 -42.847656 43.410156 -44.171875 41.234375 -45.140625 C 39.054688 -46.117188 36.71875 -46.609375 34.21875 -46.609375 Z M 3.5 -28.265625 C 3.5 -31.691406 4.195312 -35.175781 5.59375 -38.71875 C 7 -42.257812 8.988281 -45.453125 11.5625 -48.296875 C 14.132812 -51.140625 17.269531 -53.476562 20.96875 -55.3125 C 24.664062 -57.144531 28.8125 -58.0625 33.40625 -58.0625 C 37.375 -58.0625 40.914062 -57.316406 44.03125 -55.828125 C 47.144531 -54.347656 49.597656 -52.285156 51.390625 -49.640625 L 51.625 -49.640625 L 51.625 -56.53125 L 63.78125 -56.53125 L 63.78125 0 L 51.625 0 L 51.625 -6.890625 L 51.390625 -6.890625 C 49.367188 -4.242188 46.722656 -2.179688 43.453125 -0.703125 C 40.179688 0.773438 36.640625 1.515625 32.828125 1.515625 C 28.148438 1.515625 23.976562 0.640625 20.3125 -1.109375 C 16.65625 -2.859375 13.582031 -5.15625 11.09375 -8 C 8.601562 -10.84375 6.710938 -14.035156 5.421875 -17.578125 C 4.140625 -21.117188 3.5 -24.679688 3.5 -28.265625 Z M 3.5 -28.265625 "/></g></g></g><g fill="#ffffff" fill-opacity="1"><g transform="translate(130.149182, 75.977547)"><g><path d="M 20.09375 -56.53125 L 20.09375 0 L 7.9375 0 L 7.9375 -56.53125 Z M 7.25 -68.109375 C 7.25 -69.972656 7.910156 -71.566406 9.234375 -72.890625 C 10.554688 -74.210938 12.148438 -74.875 14.015625 -74.875 C 15.890625 -74.875 17.488281 -74.210938 18.8125 -72.890625 C 20.132812 -71.566406 20.796875 -69.972656 20.796875 -68.109375 C 20.796875 -66.234375 20.132812 -64.632812 18.8125 -63.3125 C 17.488281 -61.988281 15.890625 -61.328125 14.015625 -61.328125 C 12.148438 -61.328125 10.554688 -61.988281 9.234375 -63.3125 C 7.910156 -64.632812 7.25 -66.234375 7.25 -68.109375 Z M 7.25 -68.109375 "/></g></g></g><g fill="#ffffff" fill-opacity="1"><g transform="translate(158.181356, 75.977547)"><g><path d="M 34.21875 -46.609375 C 31.726562 -46.609375 29.410156 -46.117188 27.265625 -45.140625 C 25.128906 -44.171875 23.242188 -42.847656 21.609375 -41.171875 C 19.972656 -39.503906 18.6875 -37.554688 17.75 -35.328125 C 16.820312 -33.109375 16.359375 -30.753906 16.359375 -28.265625 C 16.359375 -25.691406 16.820312 -23.296875 17.75 -21.078125 C 18.6875 -18.859375 19.972656 -16.929688 21.609375 -15.296875 C 23.242188 -13.660156 25.148438 -12.351562 27.328125 -11.375 C 29.515625 -10.40625 31.851562 -9.921875 34.34375 -9.921875 C 36.757812 -9.921875 39.035156 -10.40625 41.171875 -11.375 C 43.316406 -12.351562 45.207031 -13.660156 46.84375 -15.296875 C 48.476562 -16.929688 49.757812 -18.859375 50.6875 -21.078125 C 51.625 -23.296875 52.09375 -25.691406 52.09375 -28.265625 C 52.09375 -30.753906 51.625 -33.109375 50.6875 -35.328125 C 49.757812 -37.554688 48.492188 -39.503906 46.890625 -41.171875 C 45.296875 -42.847656 43.410156 -44.171875 41.234375 -45.140625 C 39.054688 -46.117188 36.71875 -46.609375 34.21875 -46.609375 Z M 51.625 -73.359375 L 63.78125 -73.359375 L 63.78125 0 L 51.625 0 L 51.625 -6.890625 L 51.390625 -6.890625 C 49.367188 -4.242188 46.722656 -2.179688 43.453125 -0.703125 C 40.179688 0.773438 36.640625 1.515625 32.828125 1.515625 C 28.148438 1.515625 23.976562 0.640625 20.3125 -1.109375 C 16.65625 -2.859375 13.582031 -5.15625 11.09375 -8 C 8.601562 -10.84375 6.710938 -14.035156 5.421875 -17.578125 C 4.140625 -21.117188 3.5 -24.679688 3.5 -28.265625 C 3.5 -31.691406 4.195312 -35.175781 5.59375 -38.71875 C 7 -42.257812 8.988281 -45.453125 11.5625 -48.296875 C 14.132812 -51.140625 17.269531 -53.476562 20.96875 -55.3125 C 24.664062 -57.144531 28.8125 -58.0625 33.40625 -58.0625 C 37.375 -58.0625 40.914062 -57.316406 44.03125 -55.828125 C 47.144531 -54.347656 49.597656 -52.285156 51.390625 -49.640625 L 51.625 -49.640625 Z M 51.625 -73.359375 "/></g></g></g></g></g></g><g clip-path="url(#70c58180d5)"><g transform="matrix(1, 0, 0, 1, 232, 0)"><g clip-path="url(#3b35b3191f)"><g fill="#ff9700" fill-opacity="1"><g transform="translate(0.872426, 77.581516)"><g><path d="M 20.078125 -73.3125 L 20.078125 -22.296875 C 20.078125 -19.109375 20.523438 -16.773438 21.421875 -15.296875 C 22.316406 -13.816406 23.539062 -12.648438 25.09375 -11.796875 L 31.640625 -8.046875 L 26.265625 1.515625 C 23.617188 0.273438 21.164062 -0.984375 18.90625 -2.265625 C 16.65625 -3.554688 14.710938 -5 13.078125 -6.59375 C 11.441406 -8.1875 10.175781 -10.070312 9.28125 -12.25 C 8.382812 -14.4375 7.9375 -17.046875 7.9375 -20.078125 L 7.9375 -73.3125 Z M 20.078125 -73.3125 "/></g></g></g><g fill="#ff9700" fill-opacity="1"><g transform="translate(31.223863, 77.581516)"><g><path d="M 20.078125 -56.5 L 20.078125 0 L 7.9375 0 L 7.9375 -56.5 Z M 7.234375 -68.0625 C 7.234375 -69.925781 7.894531 -71.519531 9.21875 -72.84375 C 10.539062 -74.164062 12.140625 -74.828125 14.015625 -74.828125 C 15.878906 -74.828125 17.472656 -74.164062 18.796875 -72.84375 C 20.117188 -71.519531 20.78125 -69.925781 20.78125 -68.0625 C 20.78125 -66.1875 20.117188 -64.585938 18.796875 -63.265625 C 17.472656 -61.941406 15.878906 -61.28125 14.015625 -61.28125 C 12.140625 -61.28125 10.539062 -61.941406 9.21875 -63.265625 C 7.894531 -64.585938 7.234375 -66.1875 7.234375 -68.0625 Z M 7.234375 -68.0625 "/></g></g></g><g fill="#ff9700" fill-opacity="1"><g transform="translate(59.240571, 77.581516)"><g><path d="M 20.078125 -49.375 C 20.390625 -49.84375 20.929688 -50.5625 21.703125 -51.53125 C 22.484375 -52.507812 23.570312 -53.484375 24.96875 -54.453125 C 26.375 -55.429688 28.109375 -56.269531 30.171875 -56.96875 C 32.234375 -57.664062 34.628906 -58.015625 37.359375 -58.015625 C 40.546875 -58.015625 43.484375 -57.375 46.171875 -56.09375 C 48.859375 -54.8125 51.171875 -53.078125 53.109375 -50.890625 C 55.054688 -48.710938 56.570312 -46.222656 57.65625 -43.421875 C 58.75 -40.617188 59.296875 -37.660156 59.296875 -34.546875 L 59.296875 0 L 47.15625 0 L 47.15625 -31.875 C 47.15625 -36.382812 46.003906 -39.84375 43.703125 -42.25 C 41.410156 -44.664062 38.085938 -45.875 33.734375 -45.875 C 31.398438 -45.875 29.375 -45.484375 27.65625 -44.703125 C 25.945312 -43.929688 24.507812 -42.898438 23.34375 -41.609375 C 22.175781 -40.328125 21.300781 -38.847656 20.71875 -37.171875 C 20.132812 -35.503906 19.84375 -33.773438 19.84375 -31.984375 L 19.84375 0 L 7.703125 0 L 7.703125 -56.5 L 19.84375 -56.5 L 19.84375 -49.375 Z M 20.078125 -49.375 "/></g></g></g><g clip-path="url(#d4a394f91c)"><g fill="#ff9700" fill-opacity="1"><g transform="translate(126.247213, 77.581516)"><g><path d="M 9.578125 -73.3125 L 21.71875 -73.3125 L 21.71875 -35.015625 L 27.90625 -35.015625 L 42.71875 -56.5 L 57.4375 -56.5 L 38.28125 -29.890625 L 58.359375 0 L 44.015625 0 L 29.0625 -23.578125 L 21.71875 -23.578125 L 21.71875 0 L 9.578125 0 L 9.578125 -23.578125 L 1.640625 -23.578125 L 1.640625 -35.015625 L 9.578125 -35.015625 Z M 9.578125 -73.3125 "/></g></g></g></g></g></g></g></g></g></svg>