<svg xmlns="http://www.w3.org/2000/svg" xmlns:xlink="http://www.w3.org/1999/xlink" width="800" zoomAndPan="magnify" viewBox="0 0 600 299.999988" height="400" preserveAspectRatio="xMidYMid meet" version="1.0"><defs><g/><clipPath id="7e116acda9"><path d="M 0.480469 3 L 318 3 L 318 167.160156 L 0.480469 167.160156 Z M 0.480469 3 " clip-rule="nonzero"/></clipPath><clipPath id="c95579f21b"><path d="M 0.480469 2 L 91 2 L 91 107 L 0.480469 107 Z M 0.480469 2 " clip-rule="nonzero"/></clipPath><clipPath id="3cd1f9825e"><path d="M 189 0.480469 L 209 0.480469 L 209 105 L 189 105 Z M 189 0.480469 " clip-rule="nonzero"/></clipPath><clipPath id="c23a8bd291"><rect x="0" width="318" y="0" height="165"/></clipPath><clipPath id="497696169d"><path d="M 321 0.601562 L 575.039062 0.601562 L 575.039062 167 L 321 167 Z M 321 0.601562 " clip-rule="nonzero"/></clipPath><clipPath id="0c09a7e993"><rect x="0" width="255" y="0" height="167"/></clipPath><clipPath id="9385277d2c"><rect x="0" width="576" y="0" height="168"/></clipPath></defs><g transform="matrix(1, 0, 0, 1, 6, 87)"><g clip-path="url(#9385277d2c)"><g clip-path="url(#7e116acda9)"><g transform="matrix(1, 0, 0, 1, 0, 3)"><g clip-path="url(#c23a8bd291)"><g clip-path="url(#c95579f21b)"><g fill="#ffffff" fill-opacity="1"><g transform="translate(0.526895, 104.071244)"><g><path d="M 20.125 -101.140625 L 44.765625 -39.296875 L 69.40625 -101.140625 L 89.546875 -101.140625 L 44.765625 2.09375 L 0 -101.140625 Z M 20.125 -101.140625 "/></g></g></g></g><g fill="#ffffff" fill-opacity="1"><g transform="translate(81.208885, 104.071244)"><g><path d="M 47.1875 -64.25 C 43.75 -64.25 40.523438 -63.578125 37.515625 -62.234375 C 34.515625 -60.898438 31.910156 -59.078125 29.703125 -56.765625 C 27.503906 -54.460938 25.757812 -51.78125 24.46875 -48.71875 C 23.1875 -45.65625 22.546875 -42.40625 22.546875 -38.96875 C 22.546875 -35.425781 23.1875 -32.125 24.46875 -29.0625 C 25.757812 -26.007812 27.53125 -23.351562 29.78125 -21.09375 C 32.039062 -18.84375 34.671875 -17.046875 37.671875 -15.703125 C 40.679688 -14.359375 43.90625 -13.6875 47.34375 -13.6875 C 50.675781 -13.6875 53.816406 -14.359375 56.765625 -15.703125 C 59.722656 -17.046875 62.328125 -18.84375 64.578125 -21.09375 C 66.835938 -23.351562 68.609375 -26.007812 69.890625 -29.0625 C 71.179688 -32.125 71.828125 -35.425781 71.828125 -38.96875 C 71.828125 -42.40625 71.179688 -45.65625 69.890625 -48.71875 C 68.609375 -51.78125 66.863281 -54.460938 64.65625 -56.765625 C 62.457031 -59.078125 59.851562 -60.898438 56.84375 -62.234375 C 53.84375 -63.578125 50.625 -64.25 47.1875 -64.25 Z M 4.828125 -38.96875 C 4.828125 -43.695312 5.789062 -48.503906 7.71875 -53.390625 C 9.65625 -58.273438 12.394531 -62.675781 15.9375 -66.59375 C 19.488281 -70.507812 23.8125 -73.726562 28.90625 -76.25 C 34.007812 -78.78125 39.726562 -80.046875 46.0625 -80.046875 C 51.53125 -80.046875 56.410156 -79.023438 60.703125 -76.984375 C 65.003906 -74.941406 68.390625 -72.09375 70.859375 -68.4375 L 71.1875 -68.4375 L 71.1875 -77.953125 L 87.9375 -77.953125 L 87.9375 0 L 71.1875 0 L 71.1875 -9.5 L 70.859375 -9.5 C 68.066406 -5.851562 64.414062 -3.007812 59.90625 -0.96875 C 55.394531 1.070312 50.507812 2.09375 45.25 2.09375 C 38.8125 2.09375 33.066406 0.882812 28.015625 -1.53125 C 22.972656 -3.945312 18.734375 -7.113281 15.296875 -11.03125 C 11.859375 -14.945312 9.253906 -19.347656 7.484375 -24.234375 C 5.710938 -29.117188 4.828125 -34.03125 4.828125 -38.96875 Z M 4.828125 -38.96875 "/></g></g></g><g clip-path="url(#3cd1f9825e)"><g fill="#ffffff" fill-opacity="1"><g transform="translate(179.766921, 104.071244)"><g><path d="M 27.703125 -77.953125 L 27.703125 0 L 10.953125 0 L 10.953125 -77.953125 Z M 9.984375 -93.890625 C 9.984375 -96.460938 10.894531 -98.660156 12.71875 -100.484375 C 14.539062 -102.316406 16.742188 -103.234375 19.328125 -103.234375 C 21.898438 -103.234375 24.097656 -102.316406 25.921875 -100.484375 C 27.753906 -98.660156 28.671875 -96.460938 28.671875 -93.890625 C 28.671875 -91.316406 27.753906 -89.113281 25.921875 -87.28125 C 24.097656 -85.457031 21.898438 -84.546875 19.328125 -84.546875 C 16.742188 -84.546875 14.539062 -85.457031 12.71875 -87.28125 C 10.894531 -89.113281 9.984375 -91.316406 9.984375 -93.890625 Z M 9.984375 -93.890625 "/></g></g></g></g><g fill="#ffffff" fill-opacity="1"><g transform="translate(218.417138, 104.071244)"><g><path d="M 47.1875 -64.25 C 43.75 -64.25 40.550781 -63.578125 37.59375 -62.234375 C 34.644531 -60.898438 32.039062 -59.078125 29.78125 -56.765625 C 27.53125 -54.460938 25.757812 -51.78125 24.46875 -48.71875 C 23.1875 -45.65625 22.546875 -42.40625 22.546875 -38.96875 C 22.546875 -35.425781 23.1875 -32.125 24.46875 -29.0625 C 25.757812 -26.007812 27.53125 -23.351562 29.78125 -21.09375 C 32.039062 -18.84375 34.671875 -17.046875 37.671875 -15.703125 C 40.679688 -14.359375 43.90625 -13.6875 47.34375 -13.6875 C 50.675781 -13.6875 53.816406 -14.359375 56.765625 -15.703125 C 59.722656 -17.046875 62.328125 -18.84375 64.578125 -21.09375 C 66.835938 -23.351562 68.609375 -26.007812 69.890625 -29.0625 C 71.179688 -32.125 71.828125 -35.425781 71.828125 -38.96875 C 71.828125 -42.40625 71.179688 -45.65625 69.890625 -48.71875 C 68.609375 -51.78125 66.863281 -54.460938 64.65625 -56.765625 C 62.457031 -59.078125 59.851562 -60.898438 56.84375 -62.234375 C 53.84375 -63.578125 50.625 -64.25 47.1875 -64.25 Z M 71.1875 -101.140625 L 87.9375 -101.140625 L 87.9375 0 L 71.1875 0 L 71.1875 -9.5 L 70.859375 -9.5 C 68.066406 -5.851562 64.414062 -3.007812 59.90625 -0.96875 C 55.394531 1.070312 50.507812 2.09375 45.25 2.09375 C 38.8125 2.09375 33.066406 0.882812 28.015625 -1.53125 C 22.972656 -3.945312 18.734375 -7.113281 15.296875 -11.03125 C 11.859375 -14.945312 9.253906 -19.347656 7.484375 -24.234375 C 5.710938 -29.117188 4.828125 -34.03125 4.828125 -38.96875 C 4.828125 -43.695312 5.789062 -48.503906 7.71875 -53.390625 C 9.65625 -58.273438 12.394531 -62.675781 15.9375 -66.59375 C 19.488281 -70.507812 23.8125 -73.726562 28.90625 -76.25 C 34.007812 -78.78125 39.726562 -80.046875 46.0625 -80.046875 C 51.53125 -80.046875 56.410156 -79.023438 60.703125 -76.984375 C 65.003906 -74.941406 68.390625 -72.09375 70.859375 -68.4375 L 71.1875 -68.4375 Z M 71.1875 -101.140625 "/></g></g></g></g></g></g><g clip-path="url(#497696169d)"><g transform="matrix(1, 0, 0, 1, 321, 0)"><g clip-path="url(#0c09a7e993)"><g fill="#ff9700" fill-opacity="1"><g transform="translate(0.399741, 106.525209)"><g><path d="M 27.6875 -101.078125 L 27.6875 -30.734375 C 27.6875 -26.335938 28.300781 -23.117188 29.53125 -21.078125 C 30.769531 -19.046875 32.460938 -17.4375 34.609375 -16.25 L 43.625 -11.109375 L 36.21875 2.09375 C 32.5625 0.375 29.175781 -1.367188 26.0625 -3.140625 C 22.957031 -4.910156 20.273438 -6.894531 18.015625 -9.09375 C 15.765625 -11.289062 14.019531 -13.890625 12.78125 -16.890625 C 11.550781 -19.898438 10.9375 -23.5 10.9375 -27.6875 L 10.9375 -101.078125 Z M 27.6875 -101.078125 "/></g></g></g><g fill="#ff9700" fill-opacity="1"><g transform="translate(42.247712, 106.525209)"><g><path d="M 27.6875 -77.90625 L 27.6875 0 L 10.9375 0 L 10.9375 -77.90625 Z M 9.984375 -93.828125 C 9.984375 -96.410156 10.894531 -98.613281 12.71875 -100.4375 C 14.539062 -102.257812 16.738281 -103.171875 19.3125 -103.171875 C 21.882812 -103.171875 24.082031 -102.257812 25.90625 -100.4375 C 27.738281 -98.613281 28.65625 -96.410156 28.65625 -93.828125 C 28.65625 -91.253906 27.738281 -89.054688 25.90625 -87.234375 C 24.082031 -85.410156 21.882812 -84.5 19.3125 -84.5 C 16.738281 -84.5 14.539062 -85.410156 12.71875 -87.234375 C 10.894531 -89.054688 9.984375 -91.253906 9.984375 -93.828125 Z M 9.984375 -93.828125 "/></g></g></g><g fill="#ff9700" fill-opacity="1"><g transform="translate(80.876603, 106.525209)"><g><path d="M 27.6875 -68.078125 C 28.113281 -68.722656 28.863281 -69.71875 29.9375 -71.0625 C 31.007812 -72.40625 32.507812 -73.742188 34.4375 -75.078125 C 36.375 -76.421875 38.765625 -77.578125 41.609375 -78.546875 C 44.453125 -79.515625 47.75 -80 51.5 -80 C 55.90625 -80 59.957031 -79.113281 63.65625 -77.34375 C 67.351562 -75.570312 70.539062 -73.179688 73.21875 -70.171875 C 75.90625 -67.171875 78 -63.738281 79.5 -59.875 C 81.007812 -56.007812 81.765625 -51.929688 81.765625 -47.640625 L 81.765625 0 L 65.03125 0 L 65.03125 -43.9375 C 65.03125 -50.164062 63.445312 -54.941406 60.28125 -58.265625 C 57.113281 -61.585938 52.523438 -63.25 46.515625 -63.25 C 43.296875 -63.25 40.503906 -62.710938 38.140625 -61.640625 C 35.785156 -60.566406 33.800781 -59.144531 32.1875 -57.375 C 30.582031 -55.601562 29.375 -53.5625 28.5625 -51.25 C 27.757812 -48.945312 27.359375 -46.5625 27.359375 -44.09375 L 27.359375 0 L 10.625 0 L 10.625 -77.90625 L 27.359375 -77.90625 L 27.359375 -68.078125 Z M 27.6875 -68.078125 "/></g></g></g><g fill="#ff9700" fill-opacity="1"><g transform="translate(173.264056, 106.525209)"><g><path d="M 13.203125 -101.078125 L 29.9375 -101.078125 L 29.9375 -48.28125 L 38.46875 -48.28125 L 58.90625 -77.90625 L 79.1875 -77.90625 L 52.796875 -41.203125 L 80.46875 0 L 60.671875 0 L 40.078125 -32.515625 L 29.9375 -32.515625 L 29.9375 0 L 13.203125 0 L 13.203125 -32.515625 L 2.25 -32.515625 L 2.25 -48.28125 L 13.203125 -48.28125 Z M 13.203125 -101.078125 "/></g></g></g></g></g></g></g></g></svg>