<svg xmlns="http://www.w3.org/2000/svg" xmlns:xlink="http://www.w3.org/1999/xlink" width="800" zoomAndPan="magnify" viewBox="0 0 600 299.999988" height="400" preserveAspectRatio="xMidYMid meet" version="1.0"><defs><g/><clipPath id="3edfef4e0a"><path d="M 0.28125 32 L 319 32 L 319 196.28125 L 0.28125 196.28125 Z M 0.28125 32 " clip-rule="nonzero"/></clipPath><clipPath id="a5b9b59645"><path d="M 0.28125 2 L 91 2 L 91 107 L 0.28125 107 Z M 0.28125 2 " clip-rule="nonzero"/></clipPath><clipPath id="1701ee65db"><path d="M 189 0.359375 L 209 0.359375 L 209 105 L 189 105 Z M 189 0.359375 " clip-rule="nonzero"/></clipPath><clipPath id="7e3ff47ffd"><rect x="0" width="319" y="0" height="165"/></clipPath><clipPath id="e0e3a9277d"><path d="M 311 0.921875 L 558.039062 0.921875 L 558.039062 168 L 311 168 Z M 311 0.921875 " clip-rule="nonzero"/></clipPath><clipPath id="ad33412538"><rect x="0" width="248" y="0" height="168"/></clipPath><clipPath id="67116de97f"><rect x="0" width="559" y="0" height="197"/></clipPath></defs><g transform="matrix(1, 0, 0, 1, 17, 43)"><g clip-path="url(#67116de97f)"><g clip-path="url(#3edfef4e0a)"><g transform="matrix(1, 0, 0, 1, 0, 32)"><g clip-path="url(#7e3ff47ffd)"><g clip-path="url(#a5b9b59645)"><g fill="#ffffff" fill-opacity="1"><g transform="translate(0.388043, 104.03136)"><g><path d="M 20.171875 -101.296875 L 44.84375 -39.359375 L 69.53125 -101.296875 L 89.6875 -101.296875 L 44.84375 2.09375 L 0 -101.296875 Z M 20.171875 -101.296875 "/></g></g></g></g><g fill="#ffffff" fill-opacity="1"><g transform="translate(81.205611, 104.03136)"><g><path d="M 47.265625 -64.359375 C 43.828125 -64.359375 40.597656 -63.6875 37.578125 -62.34375 C 34.566406 -61 31.957031 -59.171875 29.75 -56.859375 C 27.550781 -54.546875 25.804688 -51.859375 24.515625 -48.796875 C 23.222656 -45.734375 22.578125 -42.476562 22.578125 -39.03125 C 22.578125 -35.488281 23.222656 -32.179688 24.515625 -29.109375 C 25.804688 -26.046875 27.582031 -23.382812 29.84375 -21.125 C 32.101562 -18.875 34.738281 -17.078125 37.75 -15.734375 C 40.757812 -14.390625 43.984375 -13.71875 47.421875 -13.71875 C 50.753906 -13.71875 53.898438 -14.390625 56.859375 -15.734375 C 59.816406 -17.078125 62.425781 -18.875 64.6875 -21.125 C 66.945312 -23.382812 68.722656 -26.046875 70.015625 -29.109375 C 71.304688 -32.179688 71.953125 -35.488281 71.953125 -39.03125 C 71.953125 -42.476562 71.304688 -45.734375 70.015625 -48.796875 C 68.722656 -51.859375 66.972656 -54.546875 64.765625 -56.859375 C 62.554688 -59.171875 59.945312 -61 56.9375 -62.34375 C 53.925781 -63.6875 50.703125 -64.359375 47.265625 -64.359375 Z M 4.84375 -39.03125 C 4.84375 -43.769531 5.804688 -48.582031 7.734375 -53.46875 C 9.671875 -58.363281 12.414062 -62.773438 15.96875 -66.703125 C 19.519531 -70.628906 23.847656 -73.851562 28.953125 -76.375 C 34.066406 -78.90625 39.796875 -80.171875 46.140625 -80.171875 C 51.617188 -80.171875 56.507812 -79.148438 60.8125 -77.109375 C 65.113281 -75.066406 68.503906 -72.21875 70.984375 -68.5625 L 71.296875 -68.5625 L 71.296875 -78.078125 L 88.078125 -78.078125 L 88.078125 0 L 71.296875 0 L 71.296875 -9.515625 L 70.984375 -9.515625 C 68.179688 -5.859375 64.519531 -3.007812 60 -0.96875 C 55.488281 1.070312 50.597656 2.09375 45.328125 2.09375 C 38.878906 2.09375 33.125 0.882812 28.0625 -1.53125 C 23.007812 -3.945312 18.757812 -7.117188 15.3125 -11.046875 C 11.875 -14.972656 9.269531 -19.382812 7.5 -24.28125 C 5.726562 -29.175781 4.84375 -34.09375 4.84375 -39.03125 Z M 4.84375 -39.03125 "/></g></g></g><g clip-path="url(#1701ee65db)"><g fill="#ffffff" fill-opacity="1"><g transform="translate(179.929263, 104.03136)"><g><path d="M 27.75 -78.078125 L 27.75 0 L 10.96875 0 L 10.96875 -78.078125 Z M 10 -94.046875 C 10 -96.628906 10.910156 -98.832031 12.734375 -100.65625 C 14.566406 -102.488281 16.773438 -103.40625 19.359375 -103.40625 C 21.941406 -103.40625 24.144531 -102.488281 25.96875 -100.65625 C 27.800781 -98.832031 28.71875 -96.628906 28.71875 -94.046875 C 28.71875 -91.460938 27.800781 -89.253906 25.96875 -87.421875 C 24.144531 -85.597656 21.941406 -84.6875 19.359375 -84.6875 C 16.773438 -84.6875 14.566406 -85.597656 12.734375 -87.421875 C 10.910156 -89.253906 10 -91.460938 10 -94.046875 Z M 10 -94.046875 "/></g></g></g></g><g fill="#ffffff" fill-opacity="1"><g transform="translate(218.644427, 104.03136)"><g><path d="M 47.265625 -64.359375 C 43.828125 -64.359375 40.628906 -63.6875 37.671875 -62.34375 C 34.710938 -61 32.101562 -59.171875 29.84375 -56.859375 C 27.582031 -54.546875 25.804688 -51.859375 24.515625 -48.796875 C 23.222656 -45.734375 22.578125 -42.476562 22.578125 -39.03125 C 22.578125 -35.488281 23.222656 -32.179688 24.515625 -29.109375 C 25.804688 -26.046875 27.582031 -23.382812 29.84375 -21.125 C 32.101562 -18.875 34.738281 -17.078125 37.75 -15.734375 C 40.757812 -14.390625 43.984375 -13.71875 47.421875 -13.71875 C 50.753906 -13.71875 53.898438 -14.390625 56.859375 -15.734375 C 59.816406 -17.078125 62.425781 -18.875 64.6875 -21.125 C 66.945312 -23.382812 68.722656 -26.046875 70.015625 -29.109375 C 71.304688 -32.179688 71.953125 -35.488281 71.953125 -39.03125 C 71.953125 -42.476562 71.304688 -45.734375 70.015625 -48.796875 C 68.722656 -51.859375 66.972656 -54.546875 64.765625 -56.859375 C 62.554688 -59.171875 59.945312 -61 56.9375 -62.34375 C 53.925781 -63.6875 50.703125 -64.359375 47.265625 -64.359375 Z M 71.296875 -101.296875 L 88.078125 -101.296875 L 88.078125 0 L 71.296875 0 L 71.296875 -9.515625 L 70.984375 -9.515625 C 68.179688 -5.859375 64.519531 -3.007812 60 -0.96875 C 55.488281 1.070312 50.597656 2.09375 45.328125 2.09375 C 38.878906 2.09375 33.125 0.882812 28.0625 -1.53125 C 23.007812 -3.945312 18.757812 -7.117188 15.3125 -11.046875 C 11.875 -14.972656 9.269531 -19.382812 7.5 -24.28125 C 5.726562 -29.175781 4.84375 -34.09375 4.84375 -39.03125 C 4.84375 -43.769531 5.804688 -48.582031 7.734375 -53.46875 C 9.671875 -58.363281 12.414062 -62.773438 15.96875 -66.703125 C 19.519531 -70.628906 23.847656 -73.851562 28.953125 -76.375 C 34.066406 -78.90625 39.796875 -80.171875 46.140625 -80.171875 C 51.617188 -80.171875 56.507812 -79.148438 60.8125 -77.109375 C 65.113281 -75.066406 68.503906 -72.21875 70.984375 -68.5625 L 71.296875 -68.5625 Z M 71.296875 -101.296875 "/></g></g></g></g></g></g><g clip-path="url(#e0e3a9277d)"><g transform="matrix(1, 0, 0, 1, 311, 0)"><g clip-path="url(#ad33412538)"><g fill="#ff9700" fill-opacity="1"><g transform="translate(0.376294, 136.694609)"><g><path d="M 12.203125 -98.71875 L 12.890625 -102.59375 L 39.515625 -102.59375 L 25.234375 -20.9375 C 24.035156 -14.375 23.476562 -10.050781 23.5625 -7.96875 C 23.65625 -5.894531 24.394531 -4.859375 25.78125 -4.859375 C 27.082031 -4.859375 28.472656 -5.59375 29.953125 -7.0625 C 31.429688 -8.539062 32.769531 -11.039062 33.96875 -14.5625 L 39.375 -11.5 C 37.34375 -7.25 34.894531 -4.15625 32.03125 -2.21875 C 29.164062 -0.28125 25.882812 0.6875 22.1875 0.6875 C 17.101562 0.6875 13.359375 -1.085938 10.953125 -4.640625 C 8.546875 -8.203125 7.898438 -13.21875 9.015625 -19.6875 L 21.484375 -90.953125 C 22.046875 -94.085938 22.234375 -95.957031 22.046875 -96.5625 C 21.859375 -97.164062 21.070312 -97.554688 19.6875 -97.734375 Z M 12.203125 -98.71875 "/></g></g></g><g fill="#ff9700" fill-opacity="1"><g transform="translate(41.968143, 136.694609)"><g><path d="M 29.953125 -82.484375 C 27.265625 -82.484375 25.15625 -83.222656 23.625 -84.703125 C 22.101562 -86.179688 21.34375 -88.21875 21.34375 -90.8125 C 21.34375 -93.675781 22.265625 -96.125 24.109375 -98.15625 C 25.960938 -100.1875 28.460938 -101.203125 31.609375 -101.203125 C 34.285156 -101.203125 36.382812 -100.460938 37.90625 -98.984375 C 39.4375 -97.503906 40.203125 -95.472656 40.203125 -92.890625 C 40.203125 -90.023438 39.300781 -87.570312 37.5 -85.53125 C 35.695312 -83.5 33.179688 -82.484375 29.953125 -82.484375 Z M 7.765625 -66.40625 L 8.453125 -70.296875 L 35.078125 -70.296875 L 26.484375 -20.796875 C 25.367188 -14.328125 24.832031 -10.050781 24.875 -7.96875 C 24.925781 -5.894531 25.644531 -4.859375 27.03125 -4.859375 C 28.320312 -4.859375 29.707031 -5.59375 31.1875 -7.0625 C 32.664062 -8.539062 34.007812 -11.039062 35.21875 -14.5625 L 40.625 -11.5 C 38.59375 -7.25 36.140625 -4.15625 33.265625 -2.21875 C 30.398438 -0.28125 27.125 0.6875 23.4375 0.6875 C 18.351562 0.6875 14.609375 -1.085938 12.203125 -4.640625 C 9.796875 -8.203125 9.148438 -13.21875 10.265625 -19.6875 L 17.046875 -58.640625 C 17.609375 -61.785156 17.796875 -63.65625 17.609375 -64.25 C 17.421875 -64.851562 16.632812 -65.25 15.25 -65.4375 Z M 7.765625 -66.40625 "/></g></g></g><g fill="#ff9700" fill-opacity="1"><g transform="translate(84.6691, 136.694609)"><g><path d="M 84.296875 -11.5 C 82.265625 -7.25 79.8125 -4.15625 76.9375 -2.21875 C 74.070312 -0.28125 70.796875 0.6875 67.109375 0.6875 C 62.023438 0.6875 58.234375 -1.085938 55.734375 -4.640625 C 53.234375 -8.203125 52.632812 -13.21875 53.9375 -19.6875 L 59.34375 -46.578125 C 60.632812 -52.960938 60.675781 -57.609375 59.46875 -60.515625 C 58.269531 -63.429688 56.238281 -64.890625 53.375 -64.890625 C 51.707031 -64.890625 49.671875 -64.351562 47.265625 -63.28125 C 44.867188 -62.21875 42.304688 -60.300781 39.578125 -57.53125 C 36.847656 -54.757812 34.144531 -50.785156 31.46875 -45.609375 L 23.4375 0 L 7.484375 0 L 17.75 -58.640625 C 18.300781 -61.785156 18.484375 -63.65625 18.296875 -64.25 C 18.109375 -64.851562 17.320312 -65.25 15.9375 -65.4375 L 8.453125 -66.40625 L 9.15625 -70.296875 L 34.9375 -70.296875 L 32.578125 -56.703125 C 36.367188 -61.878906 40.410156 -65.664062 44.703125 -68.0625 C 49.003906 -70.46875 53.421875 -71.671875 57.953125 -71.671875 C 64.515625 -71.671875 69.4375 -69.5 72.71875 -65.15625 C 76 -60.8125 76.851562 -54.664062 75.28125 -46.71875 L 70.15625 -20.796875 C 68.945312 -14.421875 68.363281 -10.171875 68.40625 -8.046875 C 68.457031 -5.921875 69.222656 -4.859375 70.703125 -4.859375 C 71.992188 -4.859375 73.378906 -5.59375 74.859375 -7.0625 C 76.335938 -8.539062 77.679688 -11.039062 78.890625 -14.5625 Z M 84.296875 -11.5 "/></g></g></g><g fill="#ff9700" fill-opacity="1"><g transform="translate(171.180144, 136.694609)"><g><path d="M 47.6875 0 L 35.359375 -34.109375 L 26.203125 -26.34375 L 21.625 0 L 5.6875 0 L 21.625 -90.953125 C 22.175781 -94.085938 22.359375 -95.957031 22.171875 -96.5625 C 21.992188 -97.164062 21.210938 -97.554688 19.828125 -97.734375 L 12.484375 -98.71875 L 13.03125 -102.59375 L 39.65625 -102.59375 L 27.734375 -34.796875 L 43.53125 -48.9375 C 47.320312 -52.269531 50.488281 -55.160156 53.03125 -57.609375 C 55.570312 -60.054688 57.859375 -62.132812 59.890625 -63.84375 C 61.921875 -65.550781 63.929688 -67.03125 65.921875 -68.28125 C 67.910156 -69.53125 70.195312 -70.660156 72.78125 -71.671875 L 75 -55.171875 C 69.082031 -54.347656 63.925781 -52.960938 59.53125 -51.015625 C 55.144531 -49.078125 51.195312 -46.859375 47.6875 -44.359375 L 60.3125 -11.640625 C 61.507812 -8.503906 62.429688 -6.632812 63.078125 -6.03125 C 63.722656 -5.425781 64.785156 -5.035156 66.265625 -4.859375 L 73.75 -3.875 L 73.0625 0 Z M 47.6875 0 "/></g></g></g></g></g></g></g></g></svg>